<svg xmlns="http://www.w3.org/2000/svg" version="1.1" xmlns:xlink="http://www.w3.org/1999/xlink" xmlns:svgjs="http://svgjs.dev/svgjs" width="2000" height="2058" viewBox="0 0 2000 2058"><g transform="matrix(1,0,0,1,0.2583586626140004,0.8331983805667278)"><svg viewBox="0 0 240 247" data-background-color="#ffffff" preserveAspectRatio="xMidYMid meet" height="2058" width="2000" xmlns="http://www.w3.org/2000/svg" xmlns:xlink="http://www.w3.org/1999/xlink"><g id="tight-bounds" transform="matrix(1,0,0,1,-0.031003039513677777,-0.09999999999999432)"><svg viewBox="0 0 240.06200607902738 247.2" height="247.2" width="240.06200607902738"><g><svg viewBox="0 0 240.06200607902738 247.2" height="247.2" width="240.06200607902738"><g><svg viewBox="0 0 240.06200607902738 247.2" height="247.2" width="240.06200607902738"><g id="textblocktransform"><svg viewBox="0 0 240.06200607902738 247.2" height="247.2" width="240.06200607902738" id="textblock"><g><svg viewBox="0 0 240.06200607902738 247.2" height="247.2" width="240.06200607902738"><g transform="matrix(1,0,0,1,0,0)"><svg width="240.06200607902738" viewBox="2.9 -32.3 31.950000000000003 32.9" height="247.2" data-palette-color="url(#fec2f053-7018-4205-8774-ac59b8185fc8)"><g class="wordmark-text-0" data-fill-palette-color="primary" id="text-0"></g></svg></g></svg></g></svg></g></svg></g><g></g></svg></g><defs></defs><mask id="99f44e4c-7df1-41d1-bc2c-e77389bc2d34"><g id="SvgjsG2314"><svg viewBox="0 0 240.06200607902738 247.2" height="247.2" width="240.06200607902738"><g><svg viewBox="0 0 240.06200607902738 247.2" height="247.2" width="240.06200607902738"><g><svg viewBox="0 0 240.06200607902738 247.2" height="247.2" width="240.06200607902738"><g id="SvgjsG2313"><svg viewBox="0 0 240.06200607902738 247.2" height="247.2" width="240.06200607902738" id="SvgjsSvg2312"><g><svg viewBox="0 0 240.06200607902738 247.2" height="247.2" width="240.06200607902738"><g transform="matrix(1,0,0,1,0,0)"><svg width="240.06200607902738" viewBox="2.9 -32.3 31.950000000000003 32.9" height="247.2" data-palette-color="url(#fec2f053-7018-4205-8774-ac59b8185fc8)"><g class="wordmark-text-0" data-fill-palette-color="primary" id="SvgjsG2311"><path d="M2.9 0.6L3.2-1.7Q5.5-2.15 6.3-3.03 7.1-3.9 7.1-6L7.1-6 7.15-27Q7.15-28.6 6.78-29.15 6.4-29.7 5.3-29.7L5.3-29.7 3.6-29.6 3.5-29.8 3.85-32Q4.5-32 4.85-31.95L4.85-31.95Q7.85-31.85 9.4-31.85L9.4-31.85Q11.5-31.85 14.75-32.3L14.75-32.3 14.55-30.05Q13.05-29.8 12.43-29.45 11.8-29.1 11.58-28.28 11.35-27.45 11.25-25.55L11.25-25.55 10.95-17.45 19.35-17.4Q22.5-17.4 26.75-17.9L26.75-17.9 26.8-27Q26.8-28.6 26.43-29.15 26.05-29.7 24.95-29.7L24.95-29.7Q24.25-29.7 23.25-29.6L23.25-29.6 23.15-29.8 23.5-32Q24.05-31.95 25.5-31.9 26.95-31.85 28.4-31.85L28.4-31.85Q30.8-31.85 34.4-32.3L34.4-32.3 34.2-30.05Q32.35-29.8 31.7-29.23 31.05-28.65 31-27.2L31-27.2Q30.7-21.55 30.5-15.08 30.3-8.6 30.3-5.3L30.3-5.3Q30.3-3.45 30.75-2.83 31.2-2.2 32.5-2.2L32.5-2.2Q33.1-2.2 34.75-2.35L34.75-2.35 34.85-2.15 34.4 0.15Q33.7 0.15 33.3 0.1L33.3 0.1Q30 0 28.25 0L28.25 0 22.5 0.1 22.95-2.15Q24.6-2.2 25.38-2.6 26.15-3 26.45-4.1 26.75-5.2 26.75-7.5L26.75-7.5 26.75-15.05 19.15-15.1Q17.9-15.05 15.65-14.93 13.4-14.8 10.85-14.55L10.85-14.55 10.65-5.6Q10.65-3.55 11.1-2.88 11.55-2.2 12.85-2.2L12.85-2.2Q13.45-2.2 15.1-2.35L15.1-2.35 15.2-2.15 14.75 0.15Q14.3 0.1 13.05 0.05 11.8 0 10.5 0L10.5 0Q8.2 0 5.58 0.2 2.95 0.4 2.9 0.6L2.9 0.6Z" fill="white"></path></g></svg></g></svg></g></svg></g></svg></g><g></g></svg></g><defs><mask></mask></defs></svg><rect width="240.06200607902738" height="247.2" fill="black" stroke="none" visibility="hidden"></rect></g></mask><linearGradient x1="0" x2="1" y1="0.548" y2="0.55" id="fec2f053-7018-4205-8774-ac59b8185fc8"><stop stop-color="#ff6cab" offset="0"></stop><stop stop-color="#7366ff" offset="1"></stop></linearGradient><rect width="240.06200607902738" height="247.2" fill="url(#fec2f053-7018-4205-8774-ac59b8185fc8)" mask="url(#99f44e4c-7df1-41d1-bc2c-e77389bc2d34)" data-fill-palette-color="primary"></rect></svg><rect width="240.06200607902738" height="247.2" fill="none" stroke="none" visibility="hidden"></rect></g></svg></g></svg>